<svg id="Layer_1" data-name="Layer 1" xmlns="http://www.w3.org/2000/svg" viewBox="0 0 408.39 543.03"><defs><style>.cls-1{font-size:499.57px;font-family:MyriadPro-Regular, Myriad Pro;}.cls-2{fill:#fbb03b;stroke:#000;stroke-miterlimit:10;}</style></defs><title>S</title><text class="cls-1" transform="translate(0 418.14) scale(1.66 1)">S</text><rect class="cls-2" x="317.67" y="83.58" width="50" height="50"/><rect class="cls-2" x="277.17" y="79.08" width="50" height="50"/><rect class="cls-2" x="230.67" y="75.58" width="50" height="50"/><rect class="cls-2" x="194.17" y="75.58" width="50" height="50"/><rect class="cls-2" x="157.67" y="79.08" width="50" height="50"/><rect class="cls-2" x="123.17" y="89.58" width="50" height="50"/><rect class="cls-2" x="92.67" y="97.08" width="50" height="50"/><rect class="cls-2" x="67.67" y="114.58" width="50" height="50"/><rect class="cls-2" x="52.67" y="139.58" width="50" height="50"/><rect class="cls-2" x="67.67" y="167.08" width="50" height="50"/><rect class="cls-2" x="92.67" y="185.58" width="50" height="50"/><rect class="cls-2" x="127.67" y="202.58" width="50" height="50"/><rect class="cls-2" x="159.17" y="214.58" width="50" height="50"/><rect class="cls-2" x="202.67" y="227.58" width="50" height="50"/><rect class="cls-2" x="244.17" y="239.58" width="50" height="50"/><rect class="cls-2" x="283.17" y="257.08" width="50" height="50"/><rect class="cls-2" x="302.17" y="282.08" width="50" height="50"/><rect class="cls-2" x="308.17" y="318.75" width="50" height="50"/><rect class="cls-2" x="277.17" y="348.08" width="50" height="50"/><rect class="cls-2" x="237.83" y="364.75" width="50" height="50"/><rect class="cls-2" x="202.67" y="373.08" width="50" height="50"/><rect class="cls-2" x="157.67" y="380.42" width="50" height="50"/><rect class="cls-2" x="109.17" y="368.14" width="50" height="50"/><rect class="cls-2" x="61.17" y="364.75" width="50" height="50"/></svg>